%TF.GenerationSoftware,KiCad,Pcbnew,7.0.7*%
%TF.CreationDate,2024-01-02T18:34:25+01:00*%
%TF.ProjectId,maui feeder circuit,6d617569-2066-4656-9564-657220636972,1.0*%
%TF.SameCoordinates,Original*%
%TF.FileFunction,Soldermask,Top*%
%TF.FilePolarity,Negative*%
%FSLAX46Y46*%
G04 Gerber Fmt 4.6, Leading zero omitted, Abs format (unit mm)*
G04 Created by KiCad (PCBNEW 7.0.7) date 2024-01-02 18:34:25*
%MOMM*%
%LPD*%
G01*
G04 APERTURE LIST*
G04 Aperture macros list*
%AMRoundRect*
0 Rectangle with rounded corners*
0 $1 Rounding radius*
0 $2 $3 $4 $5 $6 $7 $8 $9 X,Y pos of 4 corners*
0 Add a 4 corners polygon primitive as box body*
4,1,4,$2,$3,$4,$5,$6,$7,$8,$9,$2,$3,0*
0 Add four circle primitives for the rounded corners*
1,1,$1+$1,$2,$3*
1,1,$1+$1,$4,$5*
1,1,$1+$1,$6,$7*
1,1,$1+$1,$8,$9*
0 Add four rect primitives between the rounded corners*
20,1,$1+$1,$2,$3,$4,$5,0*
20,1,$1+$1,$4,$5,$6,$7,0*
20,1,$1+$1,$6,$7,$8,$9,0*
20,1,$1+$1,$8,$9,$2,$3,0*%
%AMFreePoly0*
4,1,19,0.550000,-0.750000,0.000000,-0.750000,0.000000,-0.744911,-0.071157,-0.744911,-0.207708,-0.704816,-0.327430,-0.627875,-0.420627,-0.520320,-0.479746,-0.390866,-0.500000,-0.250000,-0.500000,0.250000,-0.479746,0.390866,-0.420627,0.520320,-0.327430,0.627875,-0.207708,0.704816,-0.071157,0.744911,0.000000,0.744911,0.000000,0.750000,0.550000,0.750000,0.550000,-0.750000,0.550000,-0.750000,
$1*%
%AMFreePoly1*
4,1,19,0.000000,0.744911,0.071157,0.744911,0.207708,0.704816,0.327430,0.627875,0.420627,0.520320,0.479746,0.390866,0.500000,0.250000,0.500000,-0.250000,0.479746,-0.390866,0.420627,-0.520320,0.327430,-0.627875,0.207708,-0.704816,0.071157,-0.744911,0.000000,-0.744911,0.000000,-0.750000,-0.550000,-0.750000,-0.550000,0.750000,0.000000,0.750000,0.000000,0.744911,0.000000,0.744911,
$1*%
G04 Aperture macros list end*
%ADD10RoundRect,0.200000X0.200000X0.275000X-0.200000X0.275000X-0.200000X-0.275000X0.200000X-0.275000X0*%
%ADD11C,6.400000*%
%ADD12RoundRect,0.200000X-0.200000X-0.275000X0.200000X-0.275000X0.200000X0.275000X-0.200000X0.275000X0*%
%ADD13RoundRect,0.150000X-0.675000X-0.150000X0.675000X-0.150000X0.675000X0.150000X-0.675000X0.150000X0*%
%ADD14FreePoly0,90.000000*%
%ADD15R,1.500000X1.000000*%
%ADD16FreePoly1,90.000000*%
%ADD17R,1.600000X1.600000*%
%ADD18O,1.600000X1.600000*%
%ADD19C,0.650000*%
%ADD20R,1.150000X0.600000*%
%ADD21R,1.150000X0.300000*%
%ADD22RoundRect,0.250000X-0.687500X-0.250000X0.687500X-0.250000X0.687500X0.250000X-0.687500X0.250000X0*%
%ADD23O,2.500000X1.250000*%
%ADD24RoundRect,0.225000X0.225000X0.250000X-0.225000X0.250000X-0.225000X-0.250000X0.225000X-0.250000X0*%
%ADD25C,1.600000*%
%ADD26R,1.100000X1.800000*%
%ADD27RoundRect,0.225000X-0.225000X-0.250000X0.225000X-0.250000X0.225000X0.250000X-0.225000X0.250000X0*%
%ADD28R,1.250000X1.000000*%
%ADD29O,1.600000X2.000000*%
%ADD30R,1.050000X1.500000*%
%ADD31O,1.050000X1.500000*%
%ADD32RoundRect,0.200000X0.275000X-0.200000X0.275000X0.200000X-0.275000X0.200000X-0.275000X-0.200000X0*%
%ADD33RoundRect,0.250001X-0.462499X-0.624999X0.462499X-0.624999X0.462499X0.624999X-0.462499X0.624999X0*%
%ADD34RoundRect,0.250000X-1.500000X-0.550000X1.500000X-0.550000X1.500000X0.550000X-1.500000X0.550000X0*%
%ADD35RoundRect,0.250000X0.600000X0.725000X-0.600000X0.725000X-0.600000X-0.725000X0.600000X-0.725000X0*%
%ADD36O,1.700000X1.950000*%
%ADD37RoundRect,0.250000X-0.725000X0.600000X-0.725000X-0.600000X0.725000X-0.600000X0.725000X0.600000X0*%
%ADD38O,1.950000X1.700000*%
%ADD39RoundRect,0.250000X0.600000X0.750000X-0.600000X0.750000X-0.600000X-0.750000X0.600000X-0.750000X0*%
%ADD40O,1.700000X2.000000*%
%ADD41O,1.200000X2.000000*%
G04 APERTURE END LIST*
D10*
%TO.C,R8*%
X135142200Y-86780200D03*
X133492200Y-86780200D03*
%TD*%
D11*
%TO.C,H3*%
X128000000Y-64000000D03*
%TD*%
D12*
%TO.C,R1*%
X168595000Y-73000000D03*
X170245000Y-73000000D03*
%TD*%
D13*
%TO.C,U5*%
X141141000Y-80608000D03*
X141141000Y-81878000D03*
X141141000Y-83148000D03*
X141141000Y-84418000D03*
X146391000Y-84418000D03*
X146391000Y-83148000D03*
X146391000Y-81878000D03*
X146391000Y-80608000D03*
%TD*%
D14*
%TO.C,JP1*%
X188978000Y-90800000D03*
D15*
X188978000Y-89500000D03*
D16*
X188978000Y-88200000D03*
%TD*%
D12*
%TO.C,R9*%
X133492200Y-84748200D03*
X135142200Y-84748200D03*
%TD*%
D17*
%TO.C,U2*%
X177802000Y-66765000D03*
D18*
X177802000Y-69305000D03*
X177802000Y-71845000D03*
X177802000Y-74385000D03*
X177802000Y-76925000D03*
X177802000Y-79465000D03*
X177802000Y-82005000D03*
X177802000Y-84545000D03*
X185422000Y-84545000D03*
X185422000Y-82005000D03*
X185422000Y-79465000D03*
X185422000Y-76925000D03*
X185422000Y-74385000D03*
X185422000Y-71845000D03*
X185422000Y-69305000D03*
X185422000Y-66765000D03*
%TD*%
D19*
%TO.C,J3*%
X129680000Y-83110000D03*
X129680000Y-88890000D03*
D20*
X130755000Y-82800000D03*
X130755000Y-83600000D03*
D21*
X130755000Y-84250000D03*
X130755000Y-84750000D03*
X130755000Y-85250000D03*
X130755000Y-85750000D03*
X130755000Y-86250000D03*
X130755000Y-86750000D03*
X130755000Y-87250000D03*
X130755000Y-87750000D03*
D20*
X130755000Y-88400000D03*
X130755000Y-89200000D03*
D22*
X130200000Y-80850000D03*
X125950000Y-80850000D03*
D23*
X130180000Y-81680000D03*
X126000000Y-81680000D03*
X130180000Y-90320000D03*
X126000000Y-90320000D03*
D22*
X130150000Y-91150000D03*
X126000000Y-91150000D03*
%TD*%
D24*
%TO.C,C5*%
X177022695Y-86912742D03*
X175472695Y-86912742D03*
%TD*%
D12*
%TO.C,R3*%
X168595000Y-85000000D03*
X170245000Y-85000000D03*
%TD*%
%TO.C,R5*%
X142814000Y-65876000D03*
X144464000Y-65876000D03*
%TD*%
D17*
%TO.C,BZ1*%
X160530000Y-69559000D03*
D25*
X164530000Y-69559000D03*
%TD*%
D24*
%TO.C,C9*%
X146369800Y-78957000D03*
X144819800Y-78957000D03*
%TD*%
D12*
%TO.C,R2*%
X168595000Y-97000000D03*
X170245000Y-97000000D03*
%TD*%
%TO.C,R4*%
X142814000Y-64352000D03*
X144464000Y-64352000D03*
%TD*%
D26*
%TO.C,SW2*%
X171650000Y-95100000D03*
X171650000Y-88900000D03*
X175350000Y-95100000D03*
X175350000Y-88900000D03*
%TD*%
D27*
%TO.C,C1*%
X171709000Y-73000000D03*
X173259000Y-73000000D03*
%TD*%
D24*
%TO.C,C8*%
X136413000Y-91403000D03*
X134863000Y-91403000D03*
%TD*%
D28*
%TO.C,SW5*%
X125159000Y-76036000D03*
X132909000Y-76036000D03*
%TD*%
D11*
%TO.C,H4*%
X190000000Y-64000000D03*
%TD*%
D27*
%TO.C,C2*%
X171693000Y-97000000D03*
X173243000Y-97000000D03*
%TD*%
D29*
%TO.C,U4*%
X139380000Y-70400000D03*
X141920000Y-70400000D03*
X144460000Y-70400000D03*
X147000000Y-70400000D03*
%TD*%
D10*
%TO.C,R7*%
X160272808Y-80735531D03*
X158622808Y-80735531D03*
%TD*%
D26*
%TO.C,SW1*%
X171650000Y-71100000D03*
X171650000Y-64900000D03*
X175350000Y-71100000D03*
X175350000Y-64900000D03*
%TD*%
D30*
%TO.C,Q1*%
X159006000Y-77539000D03*
D31*
X160276000Y-77539000D03*
X161546000Y-77539000D03*
%TD*%
D28*
%TO.C,SW4*%
X132909000Y-71591000D03*
X125159000Y-71591000D03*
%TD*%
D24*
%TO.C,C4*%
X185435000Y-64225000D03*
X183885000Y-64225000D03*
%TD*%
D32*
%TO.C,R6*%
X160276000Y-83846000D03*
X160276000Y-82196000D03*
%TD*%
D27*
%TO.C,C3*%
X171709000Y-85000000D03*
X173259000Y-85000000D03*
%TD*%
D33*
%TO.C,F1*%
X133262500Y-88750000D03*
X136237500Y-88750000D03*
%TD*%
D27*
%TO.C,C7*%
X138165000Y-91403000D03*
X139715000Y-91403000D03*
%TD*%
D34*
%TO.C,C10*%
X179166000Y-90387000D03*
X184566000Y-90387000D03*
%TD*%
D11*
%TO.C,H1*%
X128000000Y-96000000D03*
%TD*%
%TO.C,H2*%
X190000000Y-96000000D03*
%TD*%
D26*
%TO.C,SW3*%
X171650000Y-83100000D03*
X171650000Y-76900000D03*
X175350000Y-83100000D03*
X175350000Y-76900000D03*
%TD*%
D27*
%TO.C,C6*%
X135225000Y-70000000D03*
X136775000Y-70000000D03*
%TD*%
D24*
%TO.C,C11*%
X146369800Y-86069000D03*
X144819800Y-86069000D03*
%TD*%
D35*
%TO.C,U3*%
X157228000Y-96000000D03*
D36*
X154728000Y-96000000D03*
X152228000Y-96000000D03*
X149728000Y-96000000D03*
%TD*%
D35*
%TO.C,J2*%
X142750000Y-95975000D03*
D36*
X140250000Y-95975000D03*
X137750000Y-95975000D03*
X135250000Y-95975000D03*
%TD*%
D37*
%TO.C,J1*%
X189975000Y-76250000D03*
D38*
X189975000Y-78750000D03*
X189975000Y-81250000D03*
X189975000Y-83750000D03*
%TD*%
D39*
%TO.C,J4*%
X182750000Y-96000000D03*
D40*
X180250000Y-96000000D03*
%TD*%
D41*
%TO.C,U1*%
X138178000Y-61939000D03*
X140718000Y-61939000D03*
X143258000Y-61939000D03*
X145798000Y-61939000D03*
X148338000Y-61939000D03*
X150878000Y-61939000D03*
X153418000Y-61939000D03*
X155958000Y-61939000D03*
X158498000Y-61939000D03*
X161038000Y-61939000D03*
X163578000Y-61939000D03*
X163578000Y-89264000D03*
X161038000Y-89264000D03*
X158498000Y-89264000D03*
X155958000Y-89264000D03*
X153418000Y-89264000D03*
X150878000Y-89264000D03*
X148338000Y-89264000D03*
X145798000Y-89264000D03*
X143258000Y-89264000D03*
X140718000Y-89264000D03*
X138178000Y-89264000D03*
%TD*%
M02*
