%TF.GenerationSoftware,KiCad,Pcbnew,7.0.7*%
%TF.CreationDate,2024-01-02T18:34:25+01:00*%
%TF.ProjectId,maui feeder circuit,6d617569-2066-4656-9564-657220636972,1.0*%
%TF.SameCoordinates,Original*%
%TF.FileFunction,Paste,Top*%
%TF.FilePolarity,Positive*%
%FSLAX46Y46*%
G04 Gerber Fmt 4.6, Leading zero omitted, Abs format (unit mm)*
G04 Created by KiCad (PCBNEW 7.0.7) date 2024-01-02 18:34:25*
%MOMM*%
%LPD*%
G01*
G04 APERTURE LIST*
G04 Aperture macros list*
%AMRoundRect*
0 Rectangle with rounded corners*
0 $1 Rounding radius*
0 $2 $3 $4 $5 $6 $7 $8 $9 X,Y pos of 4 corners*
0 Add a 4 corners polygon primitive as box body*
4,1,4,$2,$3,$4,$5,$6,$7,$8,$9,$2,$3,0*
0 Add four circle primitives for the rounded corners*
1,1,$1+$1,$2,$3*
1,1,$1+$1,$4,$5*
1,1,$1+$1,$6,$7*
1,1,$1+$1,$8,$9*
0 Add four rect primitives between the rounded corners*
20,1,$1+$1,$2,$3,$4,$5,0*
20,1,$1+$1,$4,$5,$6,$7,0*
20,1,$1+$1,$6,$7,$8,$9,0*
20,1,$1+$1,$8,$9,$2,$3,0*%
G04 Aperture macros list end*
%ADD10RoundRect,0.200000X0.200000X0.275000X-0.200000X0.275000X-0.200000X-0.275000X0.200000X-0.275000X0*%
%ADD11RoundRect,0.200000X-0.200000X-0.275000X0.200000X-0.275000X0.200000X0.275000X-0.200000X0.275000X0*%
%ADD12RoundRect,0.150000X-0.675000X-0.150000X0.675000X-0.150000X0.675000X0.150000X-0.675000X0.150000X0*%
%ADD13R,1.150000X0.600000*%
%ADD14R,1.150000X0.300000*%
%ADD15RoundRect,0.225000X0.225000X0.250000X-0.225000X0.250000X-0.225000X-0.250000X0.225000X-0.250000X0*%
%ADD16R,1.100000X1.800000*%
%ADD17RoundRect,0.225000X-0.225000X-0.250000X0.225000X-0.250000X0.225000X0.250000X-0.225000X0.250000X0*%
%ADD18R,1.250000X1.000000*%
%ADD19RoundRect,0.200000X0.275000X-0.200000X0.275000X0.200000X-0.275000X0.200000X-0.275000X-0.200000X0*%
%ADD20RoundRect,0.250001X-0.462499X-0.624999X0.462499X-0.624999X0.462499X0.624999X-0.462499X0.624999X0*%
%ADD21RoundRect,0.250000X-1.500000X-0.550000X1.500000X-0.550000X1.500000X0.550000X-1.500000X0.550000X0*%
G04 APERTURE END LIST*
D10*
%TO.C,R8*%
X135142200Y-86780200D03*
X133492200Y-86780200D03*
%TD*%
D11*
%TO.C,R1*%
X168595000Y-73000000D03*
X170245000Y-73000000D03*
%TD*%
D12*
%TO.C,U5*%
X141141000Y-80608000D03*
X141141000Y-81878000D03*
X141141000Y-83148000D03*
X141141000Y-84418000D03*
X146391000Y-84418000D03*
X146391000Y-83148000D03*
X146391000Y-81878000D03*
X146391000Y-80608000D03*
%TD*%
D11*
%TO.C,R9*%
X133492200Y-84748200D03*
X135142200Y-84748200D03*
%TD*%
D13*
%TO.C,J3*%
X130755000Y-82800000D03*
X130755000Y-83600000D03*
D14*
X130755000Y-84250000D03*
X130755000Y-84750000D03*
X130755000Y-85250000D03*
X130755000Y-85750000D03*
X130755000Y-86250000D03*
X130755000Y-86750000D03*
X130755000Y-87250000D03*
X130755000Y-87750000D03*
D13*
X130755000Y-88400000D03*
X130755000Y-89200000D03*
%TD*%
D15*
%TO.C,C5*%
X177022695Y-86912742D03*
X175472695Y-86912742D03*
%TD*%
D11*
%TO.C,R3*%
X168595000Y-85000000D03*
X170245000Y-85000000D03*
%TD*%
%TO.C,R5*%
X142814000Y-65876000D03*
X144464000Y-65876000D03*
%TD*%
D15*
%TO.C,C9*%
X146369800Y-78957000D03*
X144819800Y-78957000D03*
%TD*%
D11*
%TO.C,R2*%
X168595000Y-97000000D03*
X170245000Y-97000000D03*
%TD*%
%TO.C,R4*%
X142814000Y-64352000D03*
X144464000Y-64352000D03*
%TD*%
D16*
%TO.C,SW2*%
X171650000Y-95100000D03*
X171650000Y-88900000D03*
X175350000Y-95100000D03*
X175350000Y-88900000D03*
%TD*%
D17*
%TO.C,C1*%
X171709000Y-73000000D03*
X173259000Y-73000000D03*
%TD*%
D15*
%TO.C,C8*%
X136413000Y-91403000D03*
X134863000Y-91403000D03*
%TD*%
D18*
%TO.C,SW5*%
X125159000Y-76036000D03*
X132909000Y-76036000D03*
%TD*%
D17*
%TO.C,C2*%
X171693000Y-97000000D03*
X173243000Y-97000000D03*
%TD*%
D10*
%TO.C,R7*%
X160272808Y-80735531D03*
X158622808Y-80735531D03*
%TD*%
D16*
%TO.C,SW1*%
X171650000Y-71100000D03*
X171650000Y-64900000D03*
X175350000Y-71100000D03*
X175350000Y-64900000D03*
%TD*%
D18*
%TO.C,SW4*%
X132909000Y-71591000D03*
X125159000Y-71591000D03*
%TD*%
D15*
%TO.C,C4*%
X185435000Y-64225000D03*
X183885000Y-64225000D03*
%TD*%
D19*
%TO.C,R6*%
X160276000Y-83846000D03*
X160276000Y-82196000D03*
%TD*%
D17*
%TO.C,C3*%
X171709000Y-85000000D03*
X173259000Y-85000000D03*
%TD*%
D20*
%TO.C,F1*%
X133262500Y-88750000D03*
X136237500Y-88750000D03*
%TD*%
D17*
%TO.C,C7*%
X138165000Y-91403000D03*
X139715000Y-91403000D03*
%TD*%
D21*
%TO.C,C10*%
X179166000Y-90387000D03*
X184566000Y-90387000D03*
%TD*%
D16*
%TO.C,SW3*%
X171650000Y-83100000D03*
X171650000Y-76900000D03*
X175350000Y-83100000D03*
X175350000Y-76900000D03*
%TD*%
D17*
%TO.C,C6*%
X135225000Y-70000000D03*
X136775000Y-70000000D03*
%TD*%
D15*
%TO.C,C11*%
X146369800Y-86069000D03*
X144819800Y-86069000D03*
%TD*%
M02*
