%TF.GenerationSoftware,KiCad,Pcbnew,7.0.7*%
%TF.CreationDate,2024-01-02T18:34:23+01:00*%
%TF.ProjectId,maui feeder circuit,6d617569-2066-4656-9564-657220636972,1.0*%
%TF.SameCoordinates,Original*%
%TF.FileFunction,Drillmap*%
%TF.FilePolarity,Positive*%
%FSLAX45Y45*%
G04 Gerber Fmt 4.5, Leading zero omitted, Abs format (unit mm)*
G04 Created by KiCad (PCBNEW 7.0.7) date 2024-01-02 18:34:23*
%MOMM*%
%LPD*%
G01*
G04 APERTURE LIST*
%ADD10C,0.150000*%
%ADD11C,0.200000*%
%ADD12C,0.065000*%
G04 APERTURE END LIST*
D10*
X12700000Y-6000000D02*
G75*
G03*
X12400000Y-6300000I0J-300000D01*
G01*
X19400000Y-6300000D02*
X19400000Y-9700000D01*
X19100000Y-10000000D02*
G75*
G03*
X19400000Y-9700000I0J300000D01*
G01*
X12400000Y-9700000D02*
X12400000Y-6300000D01*
X12400000Y-9700000D02*
G75*
G03*
X12700000Y-10000000I300000J0D01*
G01*
X12700000Y-6000000D02*
X19100000Y-6000000D01*
X19400000Y-6300000D02*
G75*
G03*
X19100000Y-6000000I-300000J0D01*
G01*
X12700000Y-10000000D02*
X19100000Y-10000000D01*
D11*
D12*
X12935500Y-8278500D02*
X13000500Y-8343500D01*
X13000500Y-8278500D02*
X12935500Y-8343500D01*
X12935500Y-8856500D02*
X13000500Y-8921500D01*
X13000500Y-8856500D02*
X12935500Y-8921500D01*
D11*
X12653277Y-10318984D02*
X12653277Y-10118984D01*
X12653277Y-10118984D02*
X12700896Y-10118984D01*
X12700896Y-10118984D02*
X12729467Y-10128508D01*
X12729467Y-10128508D02*
X12748515Y-10147555D01*
X12748515Y-10147555D02*
X12758039Y-10166603D01*
X12758039Y-10166603D02*
X12767562Y-10204698D01*
X12767562Y-10204698D02*
X12767562Y-10233270D01*
X12767562Y-10233270D02*
X12758039Y-10271365D01*
X12758039Y-10271365D02*
X12748515Y-10290412D01*
X12748515Y-10290412D02*
X12729467Y-10309460D01*
X12729467Y-10309460D02*
X12700896Y-10318984D01*
X12700896Y-10318984D02*
X12653277Y-10318984D01*
X12853277Y-10318984D02*
X12853277Y-10185650D01*
X12853277Y-10223746D02*
X12862801Y-10204698D01*
X12862801Y-10204698D02*
X12872324Y-10195174D01*
X12872324Y-10195174D02*
X12891372Y-10185650D01*
X12891372Y-10185650D02*
X12910420Y-10185650D01*
X12977086Y-10318984D02*
X12977086Y-10185650D01*
X12977086Y-10118984D02*
X12967562Y-10128508D01*
X12967562Y-10128508D02*
X12977086Y-10138031D01*
X12977086Y-10138031D02*
X12986610Y-10128508D01*
X12986610Y-10128508D02*
X12977086Y-10118984D01*
X12977086Y-10118984D02*
X12977086Y-10138031D01*
X13100896Y-10318984D02*
X13081848Y-10309460D01*
X13081848Y-10309460D02*
X13072324Y-10290412D01*
X13072324Y-10290412D02*
X13072324Y-10118984D01*
X13205658Y-10318984D02*
X13186610Y-10309460D01*
X13186610Y-10309460D02*
X13177086Y-10290412D01*
X13177086Y-10290412D02*
X13177086Y-10118984D01*
X13434229Y-10318984D02*
X13434229Y-10118984D01*
X13434229Y-10118984D02*
X13500896Y-10261841D01*
X13500896Y-10261841D02*
X13567562Y-10118984D01*
X13567562Y-10118984D02*
X13567562Y-10318984D01*
X13748515Y-10318984D02*
X13748515Y-10214222D01*
X13748515Y-10214222D02*
X13738991Y-10195174D01*
X13738991Y-10195174D02*
X13719943Y-10185650D01*
X13719943Y-10185650D02*
X13681848Y-10185650D01*
X13681848Y-10185650D02*
X13662801Y-10195174D01*
X13748515Y-10309460D02*
X13729467Y-10318984D01*
X13729467Y-10318984D02*
X13681848Y-10318984D01*
X13681848Y-10318984D02*
X13662801Y-10309460D01*
X13662801Y-10309460D02*
X13653277Y-10290412D01*
X13653277Y-10290412D02*
X13653277Y-10271365D01*
X13653277Y-10271365D02*
X13662801Y-10252317D01*
X13662801Y-10252317D02*
X13681848Y-10242793D01*
X13681848Y-10242793D02*
X13729467Y-10242793D01*
X13729467Y-10242793D02*
X13748515Y-10233270D01*
X13843753Y-10185650D02*
X13843753Y-10385650D01*
X13843753Y-10195174D02*
X13862801Y-10185650D01*
X13862801Y-10185650D02*
X13900896Y-10185650D01*
X13900896Y-10185650D02*
X13919943Y-10195174D01*
X13919943Y-10195174D02*
X13929467Y-10204698D01*
X13929467Y-10204698D02*
X13938991Y-10223746D01*
X13938991Y-10223746D02*
X13938991Y-10280889D01*
X13938991Y-10280889D02*
X13929467Y-10299936D01*
X13929467Y-10299936D02*
X13919943Y-10309460D01*
X13919943Y-10309460D02*
X13900896Y-10318984D01*
X13900896Y-10318984D02*
X13862801Y-10318984D01*
X13862801Y-10318984D02*
X13843753Y-10309460D01*
X14024705Y-10299936D02*
X14034229Y-10309460D01*
X14034229Y-10309460D02*
X14024705Y-10318984D01*
X14024705Y-10318984D02*
X14015182Y-10309460D01*
X14015182Y-10309460D02*
X14024705Y-10299936D01*
X14024705Y-10299936D02*
X14024705Y-10318984D01*
X14024705Y-10195174D02*
X14034229Y-10204698D01*
X14034229Y-10204698D02*
X14024705Y-10214222D01*
X14024705Y-10214222D02*
X14015182Y-10204698D01*
X14015182Y-10204698D02*
X14024705Y-10195174D01*
X14024705Y-10195174D02*
X14024705Y-10214222D01*
D12*
X12327500Y-10615000D02*
X12392500Y-10680000D01*
X12392500Y-10615000D02*
X12327500Y-10680000D01*
D11*
X12691372Y-10538984D02*
X12710420Y-10538984D01*
X12710420Y-10538984D02*
X12729467Y-10548508D01*
X12729467Y-10548508D02*
X12738991Y-10558031D01*
X12738991Y-10558031D02*
X12748515Y-10577079D01*
X12748515Y-10577079D02*
X12758039Y-10615174D01*
X12758039Y-10615174D02*
X12758039Y-10662793D01*
X12758039Y-10662793D02*
X12748515Y-10700889D01*
X12748515Y-10700889D02*
X12738991Y-10719936D01*
X12738991Y-10719936D02*
X12729467Y-10729460D01*
X12729467Y-10729460D02*
X12710420Y-10738984D01*
X12710420Y-10738984D02*
X12691372Y-10738984D01*
X12691372Y-10738984D02*
X12672324Y-10729460D01*
X12672324Y-10729460D02*
X12662801Y-10719936D01*
X12662801Y-10719936D02*
X12653277Y-10700889D01*
X12653277Y-10700889D02*
X12643753Y-10662793D01*
X12643753Y-10662793D02*
X12643753Y-10615174D01*
X12643753Y-10615174D02*
X12653277Y-10577079D01*
X12653277Y-10577079D02*
X12662801Y-10558031D01*
X12662801Y-10558031D02*
X12672324Y-10548508D01*
X12672324Y-10548508D02*
X12691372Y-10538984D01*
X12843753Y-10719936D02*
X12853277Y-10729460D01*
X12853277Y-10729460D02*
X12843753Y-10738984D01*
X12843753Y-10738984D02*
X12834229Y-10729460D01*
X12834229Y-10729460D02*
X12843753Y-10719936D01*
X12843753Y-10719936D02*
X12843753Y-10738984D01*
X13024705Y-10538984D02*
X12986610Y-10538984D01*
X12986610Y-10538984D02*
X12967562Y-10548508D01*
X12967562Y-10548508D02*
X12958039Y-10558031D01*
X12958039Y-10558031D02*
X12938991Y-10586603D01*
X12938991Y-10586603D02*
X12929467Y-10624698D01*
X12929467Y-10624698D02*
X12929467Y-10700889D01*
X12929467Y-10700889D02*
X12938991Y-10719936D01*
X12938991Y-10719936D02*
X12948515Y-10729460D01*
X12948515Y-10729460D02*
X12967562Y-10738984D01*
X12967562Y-10738984D02*
X13005658Y-10738984D01*
X13005658Y-10738984D02*
X13024705Y-10729460D01*
X13024705Y-10729460D02*
X13034229Y-10719936D01*
X13034229Y-10719936D02*
X13043753Y-10700889D01*
X13043753Y-10700889D02*
X13043753Y-10653270D01*
X13043753Y-10653270D02*
X13034229Y-10634222D01*
X13034229Y-10634222D02*
X13024705Y-10624698D01*
X13024705Y-10624698D02*
X13005658Y-10615174D01*
X13005658Y-10615174D02*
X12967562Y-10615174D01*
X12967562Y-10615174D02*
X12948515Y-10624698D01*
X12948515Y-10624698D02*
X12938991Y-10634222D01*
X12938991Y-10634222D02*
X12929467Y-10653270D01*
X13224705Y-10538984D02*
X13129467Y-10538984D01*
X13129467Y-10538984D02*
X13119943Y-10634222D01*
X13119943Y-10634222D02*
X13129467Y-10624698D01*
X13129467Y-10624698D02*
X13148515Y-10615174D01*
X13148515Y-10615174D02*
X13196134Y-10615174D01*
X13196134Y-10615174D02*
X13215182Y-10624698D01*
X13215182Y-10624698D02*
X13224705Y-10634222D01*
X13224705Y-10634222D02*
X13234229Y-10653270D01*
X13234229Y-10653270D02*
X13234229Y-10700889D01*
X13234229Y-10700889D02*
X13224705Y-10719936D01*
X13224705Y-10719936D02*
X13215182Y-10729460D01*
X13215182Y-10729460D02*
X13196134Y-10738984D01*
X13196134Y-10738984D02*
X13148515Y-10738984D01*
X13148515Y-10738984D02*
X13129467Y-10729460D01*
X13129467Y-10729460D02*
X13119943Y-10719936D01*
X13358039Y-10538984D02*
X13377086Y-10538984D01*
X13377086Y-10538984D02*
X13396134Y-10548508D01*
X13396134Y-10548508D02*
X13405658Y-10558031D01*
X13405658Y-10558031D02*
X13415182Y-10577079D01*
X13415182Y-10577079D02*
X13424705Y-10615174D01*
X13424705Y-10615174D02*
X13424705Y-10662793D01*
X13424705Y-10662793D02*
X13415182Y-10700889D01*
X13415182Y-10700889D02*
X13405658Y-10719936D01*
X13405658Y-10719936D02*
X13396134Y-10729460D01*
X13396134Y-10729460D02*
X13377086Y-10738984D01*
X13377086Y-10738984D02*
X13358039Y-10738984D01*
X13358039Y-10738984D02*
X13338991Y-10729460D01*
X13338991Y-10729460D02*
X13329467Y-10719936D01*
X13329467Y-10719936D02*
X13319943Y-10700889D01*
X13319943Y-10700889D02*
X13310420Y-10662793D01*
X13310420Y-10662793D02*
X13310420Y-10615174D01*
X13310420Y-10615174D02*
X13319943Y-10577079D01*
X13319943Y-10577079D02*
X13329467Y-10558031D01*
X13329467Y-10558031D02*
X13338991Y-10548508D01*
X13338991Y-10548508D02*
X13358039Y-10538984D01*
X13510420Y-10738984D02*
X13510420Y-10605650D01*
X13510420Y-10624698D02*
X13519943Y-10615174D01*
X13519943Y-10615174D02*
X13538991Y-10605650D01*
X13538991Y-10605650D02*
X13567563Y-10605650D01*
X13567563Y-10605650D02*
X13586610Y-10615174D01*
X13586610Y-10615174D02*
X13596134Y-10634222D01*
X13596134Y-10634222D02*
X13596134Y-10738984D01*
X13596134Y-10634222D02*
X13605658Y-10615174D01*
X13605658Y-10615174D02*
X13624705Y-10605650D01*
X13624705Y-10605650D02*
X13653277Y-10605650D01*
X13653277Y-10605650D02*
X13672324Y-10615174D01*
X13672324Y-10615174D02*
X13681848Y-10634222D01*
X13681848Y-10634222D02*
X13681848Y-10738984D01*
X13777086Y-10738984D02*
X13777086Y-10605650D01*
X13777086Y-10624698D02*
X13786610Y-10615174D01*
X13786610Y-10615174D02*
X13805658Y-10605650D01*
X13805658Y-10605650D02*
X13834229Y-10605650D01*
X13834229Y-10605650D02*
X13853277Y-10615174D01*
X13853277Y-10615174D02*
X13862801Y-10634222D01*
X13862801Y-10634222D02*
X13862801Y-10738984D01*
X13862801Y-10634222D02*
X13872324Y-10615174D01*
X13872324Y-10615174D02*
X13891372Y-10605650D01*
X13891372Y-10605650D02*
X13919943Y-10605650D01*
X13919943Y-10605650D02*
X13938991Y-10615174D01*
X13938991Y-10615174D02*
X13948515Y-10634222D01*
X13948515Y-10634222D02*
X13948515Y-10738984D01*
X14338991Y-10529460D02*
X14167563Y-10786603D01*
X14596134Y-10538984D02*
X14615182Y-10538984D01*
X14615182Y-10538984D02*
X14634229Y-10548508D01*
X14634229Y-10548508D02*
X14643753Y-10558031D01*
X14643753Y-10558031D02*
X14653277Y-10577079D01*
X14653277Y-10577079D02*
X14662801Y-10615174D01*
X14662801Y-10615174D02*
X14662801Y-10662793D01*
X14662801Y-10662793D02*
X14653277Y-10700889D01*
X14653277Y-10700889D02*
X14643753Y-10719936D01*
X14643753Y-10719936D02*
X14634229Y-10729460D01*
X14634229Y-10729460D02*
X14615182Y-10738984D01*
X14615182Y-10738984D02*
X14596134Y-10738984D01*
X14596134Y-10738984D02*
X14577086Y-10729460D01*
X14577086Y-10729460D02*
X14567563Y-10719936D01*
X14567563Y-10719936D02*
X14558039Y-10700889D01*
X14558039Y-10700889D02*
X14548515Y-10662793D01*
X14548515Y-10662793D02*
X14548515Y-10615174D01*
X14548515Y-10615174D02*
X14558039Y-10577079D01*
X14558039Y-10577079D02*
X14567563Y-10558031D01*
X14567563Y-10558031D02*
X14577086Y-10548508D01*
X14577086Y-10548508D02*
X14596134Y-10538984D01*
X14748515Y-10719936D02*
X14758039Y-10729460D01*
X14758039Y-10729460D02*
X14748515Y-10738984D01*
X14748515Y-10738984D02*
X14738991Y-10729460D01*
X14738991Y-10729460D02*
X14748515Y-10719936D01*
X14748515Y-10719936D02*
X14748515Y-10738984D01*
X14881848Y-10538984D02*
X14900896Y-10538984D01*
X14900896Y-10538984D02*
X14919944Y-10548508D01*
X14919944Y-10548508D02*
X14929467Y-10558031D01*
X14929467Y-10558031D02*
X14938991Y-10577079D01*
X14938991Y-10577079D02*
X14948515Y-10615174D01*
X14948515Y-10615174D02*
X14948515Y-10662793D01*
X14948515Y-10662793D02*
X14938991Y-10700889D01*
X14938991Y-10700889D02*
X14929467Y-10719936D01*
X14929467Y-10719936D02*
X14919944Y-10729460D01*
X14919944Y-10729460D02*
X14900896Y-10738984D01*
X14900896Y-10738984D02*
X14881848Y-10738984D01*
X14881848Y-10738984D02*
X14862801Y-10729460D01*
X14862801Y-10729460D02*
X14853277Y-10719936D01*
X14853277Y-10719936D02*
X14843753Y-10700889D01*
X14843753Y-10700889D02*
X14834229Y-10662793D01*
X14834229Y-10662793D02*
X14834229Y-10615174D01*
X14834229Y-10615174D02*
X14843753Y-10577079D01*
X14843753Y-10577079D02*
X14853277Y-10558031D01*
X14853277Y-10558031D02*
X14862801Y-10548508D01*
X14862801Y-10548508D02*
X14881848Y-10538984D01*
X15024706Y-10558031D02*
X15034229Y-10548508D01*
X15034229Y-10548508D02*
X15053277Y-10538984D01*
X15053277Y-10538984D02*
X15100896Y-10538984D01*
X15100896Y-10538984D02*
X15119944Y-10548508D01*
X15119944Y-10548508D02*
X15129467Y-10558031D01*
X15129467Y-10558031D02*
X15138991Y-10577079D01*
X15138991Y-10577079D02*
X15138991Y-10596127D01*
X15138991Y-10596127D02*
X15129467Y-10624698D01*
X15129467Y-10624698D02*
X15015182Y-10738984D01*
X15015182Y-10738984D02*
X15138991Y-10738984D01*
X15319944Y-10538984D02*
X15224706Y-10538984D01*
X15224706Y-10538984D02*
X15215182Y-10634222D01*
X15215182Y-10634222D02*
X15224706Y-10624698D01*
X15224706Y-10624698D02*
X15243753Y-10615174D01*
X15243753Y-10615174D02*
X15291372Y-10615174D01*
X15291372Y-10615174D02*
X15310420Y-10624698D01*
X15310420Y-10624698D02*
X15319944Y-10634222D01*
X15319944Y-10634222D02*
X15329467Y-10653270D01*
X15329467Y-10653270D02*
X15329467Y-10700889D01*
X15329467Y-10700889D02*
X15319944Y-10719936D01*
X15319944Y-10719936D02*
X15310420Y-10729460D01*
X15310420Y-10729460D02*
X15291372Y-10738984D01*
X15291372Y-10738984D02*
X15243753Y-10738984D01*
X15243753Y-10738984D02*
X15224706Y-10729460D01*
X15224706Y-10729460D02*
X15215182Y-10719936D01*
X15500896Y-10538984D02*
X15462801Y-10538984D01*
X15462801Y-10538984D02*
X15443753Y-10548508D01*
X15443753Y-10548508D02*
X15434229Y-10558031D01*
X15434229Y-10558031D02*
X15415182Y-10586603D01*
X15415182Y-10586603D02*
X15405658Y-10624698D01*
X15405658Y-10624698D02*
X15405658Y-10700889D01*
X15405658Y-10700889D02*
X15415182Y-10719936D01*
X15415182Y-10719936D02*
X15424706Y-10729460D01*
X15424706Y-10729460D02*
X15443753Y-10738984D01*
X15443753Y-10738984D02*
X15481848Y-10738984D01*
X15481848Y-10738984D02*
X15500896Y-10729460D01*
X15500896Y-10729460D02*
X15510420Y-10719936D01*
X15510420Y-10719936D02*
X15519944Y-10700889D01*
X15519944Y-10700889D02*
X15519944Y-10653270D01*
X15519944Y-10653270D02*
X15510420Y-10634222D01*
X15510420Y-10634222D02*
X15500896Y-10624698D01*
X15500896Y-10624698D02*
X15481848Y-10615174D01*
X15481848Y-10615174D02*
X15443753Y-10615174D01*
X15443753Y-10615174D02*
X15424706Y-10624698D01*
X15424706Y-10624698D02*
X15415182Y-10634222D01*
X15415182Y-10634222D02*
X15405658Y-10653270D01*
X15596134Y-10538984D02*
X15596134Y-10577079D01*
X15672325Y-10538984D02*
X15672325Y-10577079D01*
X15967563Y-10815174D02*
X15958039Y-10805650D01*
X15958039Y-10805650D02*
X15938991Y-10777079D01*
X15938991Y-10777079D02*
X15929468Y-10758031D01*
X15929468Y-10758031D02*
X15919944Y-10729460D01*
X15919944Y-10729460D02*
X15910420Y-10681841D01*
X15910420Y-10681841D02*
X15910420Y-10643746D01*
X15910420Y-10643746D02*
X15919944Y-10596127D01*
X15919944Y-10596127D02*
X15929468Y-10567555D01*
X15929468Y-10567555D02*
X15938991Y-10548508D01*
X15938991Y-10548508D02*
X15958039Y-10519936D01*
X15958039Y-10519936D02*
X15967563Y-10510412D01*
X16034229Y-10558031D02*
X16043753Y-10548508D01*
X16043753Y-10548508D02*
X16062801Y-10538984D01*
X16062801Y-10538984D02*
X16110420Y-10538984D01*
X16110420Y-10538984D02*
X16129468Y-10548508D01*
X16129468Y-10548508D02*
X16138991Y-10558031D01*
X16138991Y-10558031D02*
X16148515Y-10577079D01*
X16148515Y-10577079D02*
X16148515Y-10596127D01*
X16148515Y-10596127D02*
X16138991Y-10624698D01*
X16138991Y-10624698D02*
X16024706Y-10738984D01*
X16024706Y-10738984D02*
X16148515Y-10738984D01*
X16386610Y-10738984D02*
X16386610Y-10538984D01*
X16472325Y-10738984D02*
X16472325Y-10634222D01*
X16472325Y-10634222D02*
X16462801Y-10615174D01*
X16462801Y-10615174D02*
X16443753Y-10605650D01*
X16443753Y-10605650D02*
X16415182Y-10605650D01*
X16415182Y-10605650D02*
X16396134Y-10615174D01*
X16396134Y-10615174D02*
X16386610Y-10624698D01*
X16596134Y-10738984D02*
X16577087Y-10729460D01*
X16577087Y-10729460D02*
X16567563Y-10719936D01*
X16567563Y-10719936D02*
X16558039Y-10700889D01*
X16558039Y-10700889D02*
X16558039Y-10643746D01*
X16558039Y-10643746D02*
X16567563Y-10624698D01*
X16567563Y-10624698D02*
X16577087Y-10615174D01*
X16577087Y-10615174D02*
X16596134Y-10605650D01*
X16596134Y-10605650D02*
X16624706Y-10605650D01*
X16624706Y-10605650D02*
X16643753Y-10615174D01*
X16643753Y-10615174D02*
X16653277Y-10624698D01*
X16653277Y-10624698D02*
X16662801Y-10643746D01*
X16662801Y-10643746D02*
X16662801Y-10700889D01*
X16662801Y-10700889D02*
X16653277Y-10719936D01*
X16653277Y-10719936D02*
X16643753Y-10729460D01*
X16643753Y-10729460D02*
X16624706Y-10738984D01*
X16624706Y-10738984D02*
X16596134Y-10738984D01*
X16777087Y-10738984D02*
X16758039Y-10729460D01*
X16758039Y-10729460D02*
X16748515Y-10710412D01*
X16748515Y-10710412D02*
X16748515Y-10538984D01*
X16929468Y-10729460D02*
X16910420Y-10738984D01*
X16910420Y-10738984D02*
X16872325Y-10738984D01*
X16872325Y-10738984D02*
X16853277Y-10729460D01*
X16853277Y-10729460D02*
X16843753Y-10710412D01*
X16843753Y-10710412D02*
X16843753Y-10634222D01*
X16843753Y-10634222D02*
X16853277Y-10615174D01*
X16853277Y-10615174D02*
X16872325Y-10605650D01*
X16872325Y-10605650D02*
X16910420Y-10605650D01*
X16910420Y-10605650D02*
X16929468Y-10615174D01*
X16929468Y-10615174D02*
X16938992Y-10634222D01*
X16938992Y-10634222D02*
X16938992Y-10653270D01*
X16938992Y-10653270D02*
X16843753Y-10672317D01*
X17015182Y-10729460D02*
X17034230Y-10738984D01*
X17034230Y-10738984D02*
X17072325Y-10738984D01*
X17072325Y-10738984D02*
X17091373Y-10729460D01*
X17091373Y-10729460D02*
X17100896Y-10710412D01*
X17100896Y-10710412D02*
X17100896Y-10700889D01*
X17100896Y-10700889D02*
X17091373Y-10681841D01*
X17091373Y-10681841D02*
X17072325Y-10672317D01*
X17072325Y-10672317D02*
X17043753Y-10672317D01*
X17043753Y-10672317D02*
X17024706Y-10662793D01*
X17024706Y-10662793D02*
X17015182Y-10643746D01*
X17015182Y-10643746D02*
X17015182Y-10634222D01*
X17015182Y-10634222D02*
X17024706Y-10615174D01*
X17024706Y-10615174D02*
X17043753Y-10605650D01*
X17043753Y-10605650D02*
X17072325Y-10605650D01*
X17072325Y-10605650D02*
X17091373Y-10615174D01*
X17167563Y-10815174D02*
X17177087Y-10805650D01*
X17177087Y-10805650D02*
X17196134Y-10777079D01*
X17196134Y-10777079D02*
X17205658Y-10758031D01*
X17205658Y-10758031D02*
X17215182Y-10729460D01*
X17215182Y-10729460D02*
X17224706Y-10681841D01*
X17224706Y-10681841D02*
X17224706Y-10643746D01*
X17224706Y-10643746D02*
X17215182Y-10596127D01*
X17215182Y-10596127D02*
X17205658Y-10567555D01*
X17205658Y-10567555D02*
X17196134Y-10548508D01*
X17196134Y-10548508D02*
X17177087Y-10519936D01*
X17177087Y-10519936D02*
X17167563Y-10510412D01*
X17529468Y-10815174D02*
X17519944Y-10805650D01*
X17519944Y-10805650D02*
X17500896Y-10777079D01*
X17500896Y-10777079D02*
X17491373Y-10758031D01*
X17491373Y-10758031D02*
X17481849Y-10729460D01*
X17481849Y-10729460D02*
X17472325Y-10681841D01*
X17472325Y-10681841D02*
X17472325Y-10643746D01*
X17472325Y-10643746D02*
X17481849Y-10596127D01*
X17481849Y-10596127D02*
X17491373Y-10567555D01*
X17491373Y-10567555D02*
X17500896Y-10548508D01*
X17500896Y-10548508D02*
X17519944Y-10519936D01*
X17519944Y-10519936D02*
X17529468Y-10510412D01*
X17605658Y-10605650D02*
X17605658Y-10738984D01*
X17605658Y-10624698D02*
X17615182Y-10615174D01*
X17615182Y-10615174D02*
X17634230Y-10605650D01*
X17634230Y-10605650D02*
X17662801Y-10605650D01*
X17662801Y-10605650D02*
X17681849Y-10615174D01*
X17681849Y-10615174D02*
X17691373Y-10634222D01*
X17691373Y-10634222D02*
X17691373Y-10738984D01*
X17815182Y-10738984D02*
X17796134Y-10729460D01*
X17796134Y-10729460D02*
X17786611Y-10719936D01*
X17786611Y-10719936D02*
X17777087Y-10700889D01*
X17777087Y-10700889D02*
X17777087Y-10643746D01*
X17777087Y-10643746D02*
X17786611Y-10624698D01*
X17786611Y-10624698D02*
X17796134Y-10615174D01*
X17796134Y-10615174D02*
X17815182Y-10605650D01*
X17815182Y-10605650D02*
X17843754Y-10605650D01*
X17843754Y-10605650D02*
X17862801Y-10615174D01*
X17862801Y-10615174D02*
X17872325Y-10624698D01*
X17872325Y-10624698D02*
X17881849Y-10643746D01*
X17881849Y-10643746D02*
X17881849Y-10700889D01*
X17881849Y-10700889D02*
X17872325Y-10719936D01*
X17872325Y-10719936D02*
X17862801Y-10729460D01*
X17862801Y-10729460D02*
X17843754Y-10738984D01*
X17843754Y-10738984D02*
X17815182Y-10738984D01*
X17938992Y-10605650D02*
X18015182Y-10605650D01*
X17967563Y-10538984D02*
X17967563Y-10710412D01*
X17967563Y-10710412D02*
X17977087Y-10729460D01*
X17977087Y-10729460D02*
X17996134Y-10738984D01*
X17996134Y-10738984D02*
X18015182Y-10738984D01*
X18234230Y-10605650D02*
X18234230Y-10805650D01*
X18234230Y-10615174D02*
X18253277Y-10605650D01*
X18253277Y-10605650D02*
X18291373Y-10605650D01*
X18291373Y-10605650D02*
X18310420Y-10615174D01*
X18310420Y-10615174D02*
X18319944Y-10624698D01*
X18319944Y-10624698D02*
X18329468Y-10643746D01*
X18329468Y-10643746D02*
X18329468Y-10700889D01*
X18329468Y-10700889D02*
X18319944Y-10719936D01*
X18319944Y-10719936D02*
X18310420Y-10729460D01*
X18310420Y-10729460D02*
X18291373Y-10738984D01*
X18291373Y-10738984D02*
X18253277Y-10738984D01*
X18253277Y-10738984D02*
X18234230Y-10729460D01*
X18443754Y-10738984D02*
X18424706Y-10729460D01*
X18424706Y-10729460D02*
X18415182Y-10710412D01*
X18415182Y-10710412D02*
X18415182Y-10538984D01*
X18605658Y-10738984D02*
X18605658Y-10634222D01*
X18605658Y-10634222D02*
X18596135Y-10615174D01*
X18596135Y-10615174D02*
X18577087Y-10605650D01*
X18577087Y-10605650D02*
X18538992Y-10605650D01*
X18538992Y-10605650D02*
X18519944Y-10615174D01*
X18605658Y-10729460D02*
X18586611Y-10738984D01*
X18586611Y-10738984D02*
X18538992Y-10738984D01*
X18538992Y-10738984D02*
X18519944Y-10729460D01*
X18519944Y-10729460D02*
X18510420Y-10710412D01*
X18510420Y-10710412D02*
X18510420Y-10691365D01*
X18510420Y-10691365D02*
X18519944Y-10672317D01*
X18519944Y-10672317D02*
X18538992Y-10662793D01*
X18538992Y-10662793D02*
X18586611Y-10662793D01*
X18586611Y-10662793D02*
X18605658Y-10653270D01*
X18672325Y-10605650D02*
X18748515Y-10605650D01*
X18700896Y-10538984D02*
X18700896Y-10710412D01*
X18700896Y-10710412D02*
X18710420Y-10729460D01*
X18710420Y-10729460D02*
X18729468Y-10738984D01*
X18729468Y-10738984D02*
X18748515Y-10738984D01*
X18891373Y-10729460D02*
X18872325Y-10738984D01*
X18872325Y-10738984D02*
X18834230Y-10738984D01*
X18834230Y-10738984D02*
X18815182Y-10729460D01*
X18815182Y-10729460D02*
X18805658Y-10710412D01*
X18805658Y-10710412D02*
X18805658Y-10634222D01*
X18805658Y-10634222D02*
X18815182Y-10615174D01*
X18815182Y-10615174D02*
X18834230Y-10605650D01*
X18834230Y-10605650D02*
X18872325Y-10605650D01*
X18872325Y-10605650D02*
X18891373Y-10615174D01*
X18891373Y-10615174D02*
X18900896Y-10634222D01*
X18900896Y-10634222D02*
X18900896Y-10653270D01*
X18900896Y-10653270D02*
X18805658Y-10672317D01*
X19072325Y-10738984D02*
X19072325Y-10538984D01*
X19072325Y-10729460D02*
X19053277Y-10738984D01*
X19053277Y-10738984D02*
X19015182Y-10738984D01*
X19015182Y-10738984D02*
X18996135Y-10729460D01*
X18996135Y-10729460D02*
X18986611Y-10719936D01*
X18986611Y-10719936D02*
X18977087Y-10700889D01*
X18977087Y-10700889D02*
X18977087Y-10643746D01*
X18977087Y-10643746D02*
X18986611Y-10624698D01*
X18986611Y-10624698D02*
X18996135Y-10615174D01*
X18996135Y-10615174D02*
X19015182Y-10605650D01*
X19015182Y-10605650D02*
X19053277Y-10605650D01*
X19053277Y-10605650D02*
X19072325Y-10615174D01*
X19148516Y-10815174D02*
X19158039Y-10805650D01*
X19158039Y-10805650D02*
X19177087Y-10777079D01*
X19177087Y-10777079D02*
X19186611Y-10758031D01*
X19186611Y-10758031D02*
X19196135Y-10729460D01*
X19196135Y-10729460D02*
X19205658Y-10681841D01*
X19205658Y-10681841D02*
X19205658Y-10643746D01*
X19205658Y-10643746D02*
X19196135Y-10596127D01*
X19196135Y-10596127D02*
X19186611Y-10567555D01*
X19186611Y-10567555D02*
X19177087Y-10548508D01*
X19177087Y-10548508D02*
X19158039Y-10519936D01*
X19158039Y-10519936D02*
X19148516Y-10510412D01*
M02*
