%TF.GenerationSoftware,KiCad,Pcbnew,7.0.7*%
%TF.CreationDate,2024-01-02T18:34:25+01:00*%
%TF.ProjectId,maui feeder circuit,6d617569-2066-4656-9564-657220636972,1.0*%
%TF.SameCoordinates,Original*%
%TF.FileFunction,Soldermask,Bot*%
%TF.FilePolarity,Negative*%
%FSLAX46Y46*%
G04 Gerber Fmt 4.6, Leading zero omitted, Abs format (unit mm)*
G04 Created by KiCad (PCBNEW 7.0.7) date 2024-01-02 18:34:25*
%MOMM*%
%LPD*%
G01*
G04 APERTURE LIST*
G04 Aperture macros list*
%AMRoundRect*
0 Rectangle with rounded corners*
0 $1 Rounding radius*
0 $2 $3 $4 $5 $6 $7 $8 $9 X,Y pos of 4 corners*
0 Add a 4 corners polygon primitive as box body*
4,1,4,$2,$3,$4,$5,$6,$7,$8,$9,$2,$3,0*
0 Add four circle primitives for the rounded corners*
1,1,$1+$1,$2,$3*
1,1,$1+$1,$4,$5*
1,1,$1+$1,$6,$7*
1,1,$1+$1,$8,$9*
0 Add four rect primitives between the rounded corners*
20,1,$1+$1,$2,$3,$4,$5,0*
20,1,$1+$1,$4,$5,$6,$7,0*
20,1,$1+$1,$6,$7,$8,$9,0*
20,1,$1+$1,$8,$9,$2,$3,0*%
G04 Aperture macros list end*
%ADD10C,6.400000*%
%ADD11R,1.600000X1.600000*%
%ADD12O,1.600000X1.600000*%
%ADD13C,0.650000*%
%ADD14O,2.500000X1.250000*%
%ADD15C,1.600000*%
%ADD16O,1.600000X2.000000*%
%ADD17R,1.050000X1.500000*%
%ADD18O,1.050000X1.500000*%
%ADD19RoundRect,0.250000X0.600000X0.725000X-0.600000X0.725000X-0.600000X-0.725000X0.600000X-0.725000X0*%
%ADD20O,1.700000X1.950000*%
%ADD21RoundRect,0.250000X-0.725000X0.600000X-0.725000X-0.600000X0.725000X-0.600000X0.725000X0.600000X0*%
%ADD22O,1.950000X1.700000*%
%ADD23RoundRect,0.250000X0.600000X0.750000X-0.600000X0.750000X-0.600000X-0.750000X0.600000X-0.750000X0*%
%ADD24O,1.700000X2.000000*%
%ADD25O,1.200000X2.000000*%
G04 APERTURE END LIST*
D10*
%TO.C,H3*%
X128000000Y-64000000D03*
%TD*%
D11*
%TO.C,U2*%
X177802000Y-66765000D03*
D12*
X177802000Y-69305000D03*
X177802000Y-71845000D03*
X177802000Y-74385000D03*
X177802000Y-76925000D03*
X177802000Y-79465000D03*
X177802000Y-82005000D03*
X177802000Y-84545000D03*
X185422000Y-84545000D03*
X185422000Y-82005000D03*
X185422000Y-79465000D03*
X185422000Y-76925000D03*
X185422000Y-74385000D03*
X185422000Y-71845000D03*
X185422000Y-69305000D03*
X185422000Y-66765000D03*
%TD*%
D13*
%TO.C,J3*%
X129680000Y-83110000D03*
X129680000Y-88890000D03*
D14*
X130180000Y-81680000D03*
X126000000Y-81680000D03*
X130180000Y-90320000D03*
X126000000Y-90320000D03*
%TD*%
D11*
%TO.C,BZ1*%
X160530000Y-69559000D03*
D15*
X164530000Y-69559000D03*
%TD*%
D10*
%TO.C,H4*%
X190000000Y-64000000D03*
%TD*%
D16*
%TO.C,U4*%
X139380000Y-70400000D03*
X141920000Y-70400000D03*
X144460000Y-70400000D03*
X147000000Y-70400000D03*
%TD*%
D17*
%TO.C,Q1*%
X159006000Y-77539000D03*
D18*
X160276000Y-77539000D03*
X161546000Y-77539000D03*
%TD*%
D10*
%TO.C,H1*%
X128000000Y-96000000D03*
%TD*%
%TO.C,H2*%
X190000000Y-96000000D03*
%TD*%
D19*
%TO.C,U3*%
X157228000Y-96000000D03*
D20*
X154728000Y-96000000D03*
X152228000Y-96000000D03*
X149728000Y-96000000D03*
%TD*%
D19*
%TO.C,J2*%
X142750000Y-95975000D03*
D20*
X140250000Y-95975000D03*
X137750000Y-95975000D03*
X135250000Y-95975000D03*
%TD*%
D21*
%TO.C,J1*%
X189975000Y-76250000D03*
D22*
X189975000Y-78750000D03*
X189975000Y-81250000D03*
X189975000Y-83750000D03*
%TD*%
D23*
%TO.C,J4*%
X182750000Y-96000000D03*
D24*
X180250000Y-96000000D03*
%TD*%
D25*
%TO.C,U1*%
X138178000Y-61939000D03*
X140718000Y-61939000D03*
X143258000Y-61939000D03*
X145798000Y-61939000D03*
X148338000Y-61939000D03*
X150878000Y-61939000D03*
X153418000Y-61939000D03*
X155958000Y-61939000D03*
X158498000Y-61939000D03*
X161038000Y-61939000D03*
X163578000Y-61939000D03*
X163578000Y-89264000D03*
X161038000Y-89264000D03*
X158498000Y-89264000D03*
X155958000Y-89264000D03*
X153418000Y-89264000D03*
X150878000Y-89264000D03*
X148338000Y-89264000D03*
X145798000Y-89264000D03*
X143258000Y-89264000D03*
X140718000Y-89264000D03*
X138178000Y-89264000D03*
%TD*%
M02*
