M48
; DRILL file {KiCad 7.0.7} date Tue Jan  2 18:34:23 2024
; FORMAT={-:-/ absolute / inch / decimal}
; #@! TF.CreationDate,2024-01-02T18:34:23+01:00
; #@! TF.GenerationSoftware,Kicad,Pcbnew,7.0.7
; #@! TF.FileFunction,Plated,1,2,PTH
FMAT,2
INCH
; #@! TA.AperFunction,Plated,PTH,ViaDrill
T1C0.0118
; #@! TA.AperFunction,Plated,PTH,ViaDrill
T2C0.0157
; #@! TA.AperFunction,Plated,PTH,ComponentDrill
T3C0.0236
; #@! TA.AperFunction,Plated,PTH,ComponentDrill
T4C0.0295
; #@! TA.AperFunction,Plated,PTH,ComponentDrill
T5C0.0315
; #@! TA.AperFunction,Plated,PTH,ComponentDrill
T6C0.0354
; #@! TA.AperFunction,Plated,PTH,ComponentDrill
T7C0.0374
; #@! TA.AperFunction,Plated,PTH,ComponentDrill
T8C0.0394
; #@! TA.AperFunction,Plated,PTH,ComponentDrill
T9C0.1260
%
G90
G05
T1
X5.0801Y-3.3885
X5.0907Y-3.3566
X5.1837Y-3.6085
X5.2001Y-3.2785
X5.3601Y-2.6835
X5.5701Y-3.4285
X5.6088Y-3.1723
X5.6314Y-3.1948
X5.8051Y-3.3835
X5.8801Y-3.0885
X5.9201Y-3.1385
X6.0701Y-3.2585
X6.0901Y-3.1785
X6.1801Y-3.2185
X6.4701Y-3.1785
X6.5801Y-3.3485
X6.5801Y-3.8185
X6.5901Y-3.0285
X6.7026Y-2.9161
X6.9701Y-3.4685
X7.3006Y-2.4691
X7.505Y-3.5236
T2
X5.0201Y-2.7535
X5.4601Y-2.9535
X6.0101Y-3.4435
X6.0951Y-3.6385
X6.4851Y-3.1185
X6.5201Y-2.8135
X6.6201Y-2.5485
X6.8401Y-3.6285
X6.9021Y-2.9285
X6.9391Y-2.9285
X6.9391Y-2.9785
X7.0551Y-2.9285
X7.0551Y-2.9785
X7.0551Y-3.0285
X7.0941Y-2.9285
X7.0941Y-2.9785
X7.0941Y-3.0285
X7.2081Y-2.9285
X7.2081Y-2.9785
X7.2081Y-3.0285
X7.2301Y-3.3035
X7.2451Y-2.9285
X7.2451Y-2.9785
X7.2451Y-3.0285
X7.3601Y-2.9285
X7.3601Y-2.9785
X7.3601Y-3.0285
X7.3971Y-2.9285
X7.3971Y-2.9785
X7.3971Y-3.0285
T4
X6.2601Y-3.0527
X6.3101Y-3.0527
X6.3601Y-3.0527
T5
X5.4401Y-2.4385
X5.4401Y-3.5143
X5.5401Y-2.4385
X5.5401Y-3.5143
X5.6401Y-2.4385
X5.6401Y-3.5143
X5.7401Y-2.4385
X5.7401Y-3.5143
X5.8401Y-2.4385
X5.8401Y-3.5143
X5.9401Y-2.4385
X5.9401Y-3.5143
X6.0401Y-2.4385
X6.0401Y-3.5143
X6.1401Y-2.4385
X6.1401Y-3.5143
X6.2401Y-2.4385
X6.2401Y-3.5143
X6.3401Y-2.4385
X6.3401Y-3.5143
X6.4401Y-2.4385
X6.4401Y-3.5143
X7.0001Y-2.6285
X7.0001Y-2.7285
X7.0001Y-2.8285
X7.0001Y-2.9285
X7.0001Y-3.0285
X7.0001Y-3.1285
X7.0001Y-3.2285
X7.0001Y-3.3285
X7.3001Y-2.6285
X7.3001Y-2.7285
X7.3001Y-2.8285
X7.3001Y-2.9285
X7.3001Y-3.0285
X7.3001Y-3.1285
X7.3001Y-3.2285
X7.3001Y-3.3285
T6
X6.3201Y-2.7385
X6.4776Y-2.7385
T7
X5.3248Y-3.7785
X5.4232Y-3.7785
X5.5217Y-3.7785
X5.6201Y-3.7785
X5.8948Y-3.7795
X5.9932Y-3.7795
X6.0917Y-3.7795
X6.1901Y-3.7795
X7.4793Y-3.002
X7.4793Y-3.1004
X7.4793Y-3.1988
X7.4793Y-3.2972
T8
X5.4874Y-2.7717
X5.5874Y-2.7717
X5.6874Y-2.7717
X5.7874Y-2.7717
X7.0965Y-3.7795
X7.1949Y-3.7795
T9
X5.0394Y-2.5197
X5.0394Y-3.7795
X7.4803Y-2.5197
X7.4803Y-3.7795
T3
G00X4.939Y-3.2157
M15
G01X4.9823Y-3.2157
M16
G05
G00X4.939Y-3.5559
M15
G01X4.9823Y-3.5559
M16
G05
G00X5.1035Y-3.2157
M15
G01X5.1469Y-3.2157
M16
G05
G00X5.1035Y-3.5559
M15
G01X5.1469Y-3.5559
M16
G05
T0
M30
